<?xml version="1.0" ?><!DOCTYPE svg  PUBLIC '-//W3C//DTD SVG 1.0//EN'  'http://www.w3.org/TR/2001/REC-SVG-20010904/DTD/svg10.dtd'><svg enable-background="new 0 0 64 64" height="64px" id="Layer_1" version="1.0" viewBox="0 0 64 64" width="64px" xml:space="preserve" xmlns="http://www.w3.org/2000/svg" xmlns:xlink="http://www.w3.org/1999/xlink"><g><g><path d="M58.512,0.006H31.822H5.434c-2.982,0-5.409,2.49-5.409,5.418L0,35.801h63.891L63.848,5.406    C63.848,2.428,61.457,0.006,58.512,0.006z" fill="#DBD5C3"/></g><g><path d="M58.512,0.006H31.822H5.434c-2.982,0-5.409,2.49-5.409,5.418v16.452h63.734l0.089-16.47    C63.848,2.428,61.457,0.006,58.512,0.006z" fill="#8E7253"/></g><path d="M0,35.176v23.425c0,2.914,2.432,5.321,5.421,5.321H58.47c2.989,0,5.421-2.407,5.421-5.321V34.968L0,35.176z   " fill="#C9C8BB"/></g><g><path d="M47.938,34.938c0-8.821-7.132-15.971-15.928-15.971c-8.795,0-15.927,7.149-15.927,15.971   c0,0.025,0.004,0.054,0.004,0.081h31.847C47.934,34.992,47.938,34.964,47.938,34.938z" fill="#FFFBD7"/><path d="M32.01,50.854c8.77,0,15.879-7.082,15.924-15.834H16.087C16.132,43.771,23.242,50.854,32.01,50.854z" fill="#EEDDB7"/></g><g><path d="M45.916,34.898c0-7.586-6.244-13.732-13.947-13.732S18.02,27.312,18.02,34.898   c0,0.02,0.004,0.039,0.004,0.059h27.891C45.914,34.938,45.916,34.918,45.916,34.898z" fill="#71514E"/><path d="M31.938,48.843c7.664,0,13.881-6.214,13.914-13.886H18.023C18.057,42.629,24.273,48.843,31.938,48.843z" fill="#5C3A36"/></g><g><path d="M41.895,35c0-5.482-4.467-9.926-9.979-9.926c-5.51,0-9.979,4.443-9.979,9.926c0,0.008,0,0.014,0,0.02   h19.957C41.895,35.014,41.895,35.008,41.895,35z" fill="#513325"/><path d="M31.916,44.926c5.506,0,9.967-4.434,9.979-9.906H21.938C21.949,40.492,26.414,44.926,31.916,44.926z" fill="#391817"/></g><rect fill="#5C3A36" height="9.76" width="9.917" x="49" y="5.041"/><rect fill="#391817" height="7.634" width="7.802" x="50.083" y="6.084"/><rect fill="#DA3C02" height="18.926" width="2.937" x="4.167"/><rect fill="#F88F40" height="18.926" width="2.937" x="7.104"/><rect fill="#A5C57D" height="18.926" width="2.938" x="10.042"/><rect fill="#30ABB9" height="18.926" width="2.77" x="13.147"/></svg>